# xmcd
#
# Track frame offsets: 
#        225
#        21936
#        39715
#        55538
#        77578
#        95993
#        111959
#        128806
#        145576
#        162559
#        178869
#        194792
#        211435
#        230248
#        250711
#
# Disc length: 3637 seconds
#
# Revision: 0
# Processed by: cddbd v1.5.1PL0 Copyright (c) Steve Scherf et al.
# Submitted via: ExactAudioCopy v0.95a3
#
DISCID=df0e320f
DTITLE=Various Artist - Europa Plus. Vol.3
DYEAR=1996
DGENRE=Pop
TTITLE0=Дмитрий Маликов - Выпью До Дна
TTITLE1=Анжелика Варум - Осенний Джаз
TTITLE2=Сюткин И К - 7000 Над Землёй
TTITLE3=Валерий Меладзе - Женщина В Белом
TTITLE4=Академия - Догги
TTITLE5=Леонид Агутин - Пароход
TTITLE6=Колибри - Жёлтый Лист Осенний
TTITLE7=Чай Вдвоём - Честно Говоря
TTITLE8=Филипп Киркоров - Милая
TTITLE9=Patricia Kaas - Очи Чёрные
TTITLE10=Браво - Ветер Знает
TTITLE11=Андрей Губин - Ночь
TTITLE12=Линда - Круг От Руки
TTITLE13=Влад Сташевский - Я Не Буду Тебя Больше Ждать
TTITLE14=Светлана Владимирская - Горячий Ветер
EXTD=
EXTT0=
EXTT1=
EXTT2=
EXTT3=
EXTT4=
EXTT5=
EXTT6=
EXTT7=
EXTT8=
EXTT9=
EXTT10=
EXTT11=
EXTT12=
EXTT13=
EXTT14=
PLAYORDER=
